<svg width="45" height="45" viewBox="0 0 45 45" fill="none" xmlns="http://www.w3.org/2000/svg">
<path d="M11.6906 12.0994C9.30008 14.5805 7.83656 17.809 7.54607 21.2422C7.25558 24.6753 8.15582 28.1038 10.0955 30.9514C12.0351 33.799 14.896 35.892 18.1971 36.8787C21.4982 37.8653 25.0384 37.6855 28.2225 36.3694C28.4381 34.9631 27.9656 33.6131 27.7725 33.1406C27.3413 32.0906 25.92 30.2963 23.5481 27.8081C22.9144 27.1425 22.9556 26.6306 23.1825 25.1138L23.2069 24.9431C23.3606 23.9044 23.6194 23.2894 27.1162 22.7344C28.8937 22.4531 29.3606 23.1619 30.0075 24.1462L30.225 24.4688C30.84 25.3687 31.2956 25.575 31.9838 25.8862C32.2931 26.0269 32.6775 26.205 33.1931 26.4956C34.4156 27.195 34.4156 27.9844 34.4156 29.7131V29.91C34.4156 30.6431 34.3444 31.2881 34.2319 31.8488C35.6707 30.043 36.6733 27.9295 37.1617 25.6729C37.6501 23.4162 37.6111 21.0773 37.0478 18.8382C36.4844 16.5991 35.4119 14.5202 33.9137 12.7634C32.4155 11.0066 30.5321 9.61924 28.41 8.70937C27.3731 9.40875 25.95 10.4006 25.4531 11.0812C25.2 11.4281 24.84 13.2037 23.6719 13.35C23.3681 13.3875 22.9575 13.3612 22.5225 13.3331C21.3563 13.2581 19.7625 13.155 19.2525 14.5406C18.9281 15.4181 18.8719 17.8031 19.92 19.0406C20.0887 19.2375 20.1206 19.6031 20.0063 20.0138C19.8563 20.5519 19.5544 20.88 19.4588 20.9475C19.2788 20.8425 18.9187 20.4244 18.6731 20.1412C18.0862 19.4569 17.3513 18.6037 16.4025 18.3412C16.0575 18.2456 15.6788 18.1669 15.3094 18.0881C14.28 17.8725 13.1156 17.6269 12.8438 17.0494C12.645 16.6256 12.6469 16.0425 12.6469 15.4275C12.6469 14.6456 12.6469 13.7625 12.2644 12.9056C12.1314 12.5998 11.936 12.3252 11.6906 12.0994ZM22.5 41.25C12.1444 41.25 3.75 32.8556 3.75 22.5C3.75 12.1444 12.1444 3.75 22.5 3.75C32.8556 3.75 41.25 12.1444 41.25 22.5C41.25 32.8556 32.8556 41.25 22.5 41.25Z" fill="#24D388"/>
</svg>
