<svg width="45" height="45" viewBox="0 0 45 45" fill="none" xmlns="http://www.w3.org/2000/svg">
<path d="M9.375 16.875C9.87228 16.875 10.3492 17.0725 10.7008 17.4242C11.0525 17.7758 11.25 18.2527 11.25 18.75C14.1959 18.7457 17.0568 19.7368 19.3688 21.5625H23.4375C25.9369 21.5625 28.1813 22.65 29.7263 24.375H35.625C37.3974 24.3745 39.1336 24.8764 40.6323 25.8226C42.131 26.7687 43.3307 28.1203 44.0925 29.7206C39.6581 35.5725 32.4788 39.375 24.375 39.375C19.1438 39.375 14.7188 38.2444 11.1375 36.2662C11.0063 36.6282 10.7667 36.9409 10.4513 37.1617C10.1359 37.3825 9.76002 37.5007 9.375 37.5H3.75C3.25272 37.5 2.77581 37.3025 2.42417 36.9508C2.07254 36.5992 1.875 36.1223 1.875 35.625V18.75C1.875 18.2527 2.07254 17.7758 2.42417 17.4242C2.77581 17.0725 3.25272 16.875 3.75 16.875H9.375ZM11.2519 22.5L11.25 31.9162L11.3344 31.9763C14.7 34.3388 19.0838 35.625 24.375 35.625C30.0075 35.625 35.2481 33.4575 39.0656 29.7562L39.315 29.5069L39.09 29.3194C38.2046 28.6259 37.1314 28.2144 36.0094 28.1381L35.625 28.125H31.6669C31.8019 28.7287 31.875 29.355 31.875 30V31.875H15V28.125L27.7313 28.1231L27.6675 27.9769C27.3082 27.226 26.7554 26.5843 26.0661 26.1177C25.3767 25.6511 24.5756 25.3765 23.745 25.3219L23.4375 25.3125H17.9438C17.0725 24.4214 16.0318 23.7135 14.8829 23.2305C13.734 22.7475 12.5001 22.4991 11.2538 22.5H11.2519ZM7.5 20.625H5.625V33.75H7.5V20.625ZM33.75 9.375C35.2418 9.375 36.6726 9.96763 37.7275 11.0225C38.7824 12.0774 39.375 13.5082 39.375 15C39.375 16.4918 38.7824 17.9226 37.7275 18.9775C36.6726 20.0324 35.2418 20.625 33.75 20.625C32.2582 20.625 30.8274 20.0324 29.7725 18.9775C28.7176 17.9226 28.125 16.4918 28.125 15C28.125 13.5082 28.7176 12.0774 29.7725 11.0225C30.8274 9.96763 32.2582 9.375 33.75 9.375ZM33.75 13.125C33.2527 13.125 32.7758 13.3225 32.4242 13.6742C32.0725 14.0258 31.875 14.5027 31.875 15C31.875 15.4973 32.0725 15.9742 32.4242 16.3258C32.7758 16.6775 33.2527 16.875 33.75 16.875C34.2473 16.875 34.7242 16.6775 35.0758 16.3258C35.4275 15.9742 35.625 15.4973 35.625 15C35.625 14.5027 35.4275 14.0258 35.0758 13.6742C34.7242 13.3225 34.2473 13.125 33.75 13.125ZM20.625 3.75C22.1168 3.75 23.5476 4.34263 24.6025 5.39752C25.6574 6.45242 26.25 7.88316 26.25 9.375C26.25 10.8668 25.6574 12.2976 24.6025 13.3525C23.5476 14.4074 22.1168 15 20.625 15C19.1332 15 17.7024 14.4074 16.6475 13.3525C15.5926 12.2976 15 10.8668 15 9.375C15 7.88316 15.5926 6.45242 16.6475 5.39752C17.7024 4.34263 19.1332 3.75 20.625 3.75V3.75ZM20.625 7.5C20.1277 7.5 19.6508 7.69754 19.2992 8.04918C18.9475 8.40081 18.75 8.87772 18.75 9.375C18.75 9.87228 18.9475 10.3492 19.2992 10.7008C19.6508 11.0525 20.1277 11.25 20.625 11.25C21.1223 11.25 21.5992 11.0525 21.9508 10.7008C22.3025 10.3492 22.5 9.87228 22.5 9.375C22.5 8.87772 22.3025 8.40081 21.9508 8.04918C21.5992 7.69754 21.1223 7.5 20.625 7.5V7.5Z" fill="#4267B2"/>
</svg>
