<svg width="45" height="45" viewBox="0 0 45 45" fill="none" xmlns="http://www.w3.org/2000/svg">
<path d="M13.6706 39.045L3.75002 41.25L5.95502 31.3294C4.50289 28.6132 3.74538 25.58 3.75002 22.5C3.75002 12.1444 12.1444 3.75 22.5 3.75C32.8556 3.75 41.25 12.1444 41.25 22.5C41.25 32.8556 32.8556 41.25 22.5 41.25C19.4201 41.2546 16.3868 40.4971 13.6706 39.045V39.045ZM14.2144 35.0831L15.4388 35.7394C17.6111 36.9003 20.037 37.5051 22.5 37.5C25.4667 37.5 28.3668 36.6203 30.8336 34.972C33.3003 33.3238 35.2229 30.9811 36.3582 28.2403C37.4935 25.4994 37.7906 22.4834 37.2118 19.5736C36.633 16.6639 35.2044 13.9912 33.1066 11.8934C31.0088 9.79561 28.3361 8.367 25.4264 7.78822C22.5167 7.20944 19.5007 7.50649 16.7598 8.64181C14.0189 9.77712 11.6762 11.6997 10.028 14.1664C8.37976 16.6332 7.50002 19.5333 7.50002 22.5C7.50002 25.0013 8.1094 27.4088 9.26252 29.5613L9.9169 30.7856L8.68877 36.3113L14.2144 35.0831V35.0831ZM13.125 22.5H16.875C16.875 23.9918 17.4677 25.4226 18.5225 26.4775C19.5774 27.5324 21.0082 28.125 22.5 28.125C23.9919 28.125 25.4226 27.5324 26.4775 26.4775C27.5324 25.4226 28.125 23.9918 28.125 22.5H31.875C31.875 24.9864 30.8873 27.371 29.1291 29.1291C27.371 30.8873 24.9864 31.875 22.5 31.875C20.0136 31.875 17.629 30.8873 15.8709 29.1291C14.1127 27.371 13.125 24.9864 13.125 22.5V22.5Z" fill="#4267B2"/>
</svg>
