<svg width="45" height="45" viewBox="0 0 45 45" fill="none" xmlns="http://www.w3.org/2000/svg">
<path d="M10.6338 7.98221C17.9988 1.94659 28.8832 2.36659 35.7588 9.24221C43.0807 16.5641 43.0807 28.4366 35.7588 35.7585C28.4369 43.0803 16.5644 43.0803 9.24254 35.7585C6.9956 33.5146 5.35581 30.7364 4.47715 27.6849C3.5985 24.6334 3.50981 21.4087 4.21942 18.3135L4.36379 17.7266L7.99004 18.6828C7.09106 22.0996 7.42697 25.724 8.93856 28.9173C10.4502 32.1106 13.0404 34.6679 16.2529 36.1385C19.4653 37.609 23.0937 37.8985 26.4986 36.9558C29.9036 36.0131 32.8665 33.8988 34.8652 30.9855C36.8639 28.0722 37.7702 24.5469 37.4242 21.0308C37.0783 17.5148 35.5024 14.2337 32.9742 11.7658C30.446 9.29788 27.1278 7.80158 23.6044 7.54059C20.0811 7.27959 16.5786 8.27064 13.7144 10.3391L13.3 10.6503L15.2069 12.5572L6.58942 14.5447L8.57692 5.92721L10.6319 7.98221H10.6338Z" fill="#4267B2"/>
<path d="M18.8445 20.6249H28.1257V24.3749H18.8445C19.0069 25.1723 19.3742 25.9138 19.9101 26.5263C20.4461 27.1387 21.1323 27.6011 21.9012 27.8679C22.6701 28.1346 23.4952 28.1966 24.2953 28.0477C25.0955 27.8988 25.843 27.5441 26.4645 27.0186L29.652 29.143C28.5567 30.3353 27.1415 31.1874 25.5752 31.5974C24.0089 32.0075 22.3577 31.9583 20.8186 31.4556C19.2796 30.9529 17.9176 30.018 16.8953 28.7625C15.873 27.507 15.2336 25.9839 15.0532 24.3749H13.1257V20.6249H15.0514C15.2311 19.0151 15.8704 17.491 16.8929 16.2347C17.9154 14.9785 19.278 14.0431 20.8178 13.5403C22.3576 13.0375 24.0095 12.9886 25.5764 13.3993C27.1433 13.8101 28.5588 14.6632 29.6539 15.8567L26.4645 17.9811C25.843 17.4556 25.0955 17.1009 24.2953 16.952C23.4952 16.8031 22.6701 16.8651 21.9012 17.1318C21.1323 17.3986 20.4461 17.861 19.9101 18.4734C19.3742 19.0859 19.0069 19.8274 18.8445 20.6249Z" fill="#4267B2"/>
</svg>
