<svg width="162" height="30" viewBox="0 0 162 30" fill="none" xmlns="http://www.w3.org/2000/svg">
<path fill-rule="evenodd" clip-rule="evenodd" d="M29.9605 25.5893V20.8009H26.5518V25.5893H29.9605Z" fill="#24D388"/>
<path fill-rule="evenodd" clip-rule="evenodd" d="M53.0949 20.8009L53.0948 17.3922H29.9605L29.9605 20.8009H53.0949ZM53.0949 25.5893H56.5035V20.8009H53.0949V25.5893ZM53.0949 25.5893H29.9605L29.9605 28.998H53.0948L53.0949 25.5893Z" fill="#24D388"/>
<path d="M29.9605 28.998H26.5518L26.5518 25.5893H29.9605L29.9605 28.998Z" fill="#24D388"/>
<path d="M56.5036 28.998H53.0948L53.0949 25.5893H56.5035V20.8009H53.0949L53.0948 17.3922H56.5036V28.998Z" fill="#24D388"/>
<path d="M26.5518 17.3922H29.9605L29.9605 20.8009H26.5518L26.5518 17.3922Z" fill="#24D388"/>
<path fill-rule="evenodd" clip-rule="evenodd" d="M26.5519 20.8008L26.5519 17.3921L3.4175 17.3921V20.8008H26.5519Z" fill="#4267B2"/>
<path fill-rule="evenodd" clip-rule="evenodd" d="M3.4175 9.19492V12.6036H26.5519V9.19492H3.4175Z" fill="#4267B2"/>
<path fill-rule="evenodd" clip-rule="evenodd" d="M0.00878906 12.6036V17.3921L3.4175 17.3921V12.6036H26.5519L26.5519 17.3921H29.9606V12.6036H0.00878906ZM0.00878906 9.19492V4.40648H3.4175V0.997772H26.5519L26.5519 4.40648H29.9606V9.19492H0.00878906ZM26.5519 4.40648H3.4175V9.19492H26.5519V4.40648Z" fill="#4267B2"/>
<path d="M3.4175 20.8008L0.00878906 20.8008V17.3921L3.4175 17.3921V20.8008Z" fill="#4267B2"/>
<path d="M29.9606 12.6036L26.5519 12.6036V9.19492L29.9606 9.19492V12.6036Z" fill="#4267B2"/>
<path d="M29.9606 0.997772V4.40648H26.5519L26.5519 0.997772H29.9606Z" fill="#4267B2"/>
<path d="M0.00878906 4.40648V0.997772H3.4175V4.40648H0.00878906Z" fill="#4267B2"/>
<path d="M3.4175 12.6036L0.00878906 12.6036V9.19492L3.4175 9.19492V12.6036Z" fill="#4267B2"/>
<path d="M26.5519 17.3921H29.9606L29.9606 20.8008H26.5519L26.5519 17.3921Z" fill="#4267B2"/>
<path d="M64.9932 1.39844H71.3682V23.1132H83.9189V29.289H64.9932V1.39844Z" fill="black"/>
<path d="M87.2885 1.39844H100.437C101.792 1.39844 103.027 1.62422 104.142 2.07578C105.258 2.52734 106.214 3.17812 107.011 4.02812C107.835 4.85155 108.472 5.86093 108.924 7.05624C109.375 8.22499 109.601 9.52655 109.601 10.9609C109.601 12.0234 109.481 12.9664 109.242 13.7898C109.03 14.6133 108.738 15.3437 108.366 15.9812C108.02 16.5922 107.609 17.1234 107.131 17.575C106.679 18 106.214 18.3586 105.736 18.6507C104.594 19.3414 103.292 19.7664 101.831 19.9257L110.398 29.289H102.429L94.4604 20.3242H93.6635V29.289H87.2885V1.39844ZM100.038 14.5468C100.942 14.5468 101.699 14.2281 102.31 13.5906C102.92 12.9531 103.226 12.0765 103.226 10.9609C103.226 9.84529 102.92 8.96873 102.31 8.33123C101.699 7.69374 100.942 7.37499 100.038 7.37499H93.6635V14.5468H100.038Z" fill="black"/>
<path d="M114.37 1.39844H133.295V7.17577H120.745V12.7539H132.299V18.332H120.745V29.289H114.37V1.39844Z" fill="black"/>
<path d="M149.25 29.6874C147.364 29.6874 145.598 29.3421 143.951 28.6515C142.304 27.9343 140.87 26.9382 139.648 25.6632C138.426 24.3882 137.456 22.8742 136.739 21.1211C136.049 19.3679 135.703 17.4422 135.703 15.3437C135.703 13.2453 136.049 11.3195 136.739 9.56639C137.456 7.81327 138.426 6.29921 139.648 5.02421C140.87 3.74921 142.304 2.7664 143.951 2.07578C145.598 1.35859 147.364 1 149.25 1C150.605 1 151.813 1.15938 152.876 1.47812C153.965 1.77031 154.934 2.16875 155.784 2.67343C156.634 3.17812 157.378 3.76249 158.016 4.42656C158.653 5.06405 159.198 5.71483 159.649 6.37889C160.738 7.94608 161.522 9.73904 162 11.7578H155.625C155.359 10.9078 154.948 10.1375 154.39 9.44686C153.885 8.83592 153.221 8.30467 152.398 7.85311C151.601 7.40155 150.552 7.17577 149.25 7.17577C148.267 7.17577 147.338 7.37499 146.461 7.77342C145.584 8.1453 144.814 8.68983 144.15 9.40702C143.513 10.0976 143.008 10.9476 142.636 11.957C142.264 12.9664 142.078 14.0953 142.078 15.3437C142.078 16.5922 142.264 17.7211 142.636 18.7304C143.008 19.7398 143.513 20.6031 144.15 21.3203C144.814 22.0109 145.584 22.5554 146.461 22.9539C147.338 23.3257 148.267 23.5117 149.25 23.5117C150.605 23.5117 151.694 23.2726 152.517 22.7945C153.341 22.2898 153.991 21.732 154.47 21.1211C155.001 20.4304 155.386 19.6336 155.625 18.7304H162C161.548 20.7757 160.791 22.5953 159.729 24.189C159.171 25.1718 158.587 25.9421 157.976 26.4999C157.391 27.0578 156.674 27.5757 155.824 28.0539C155.001 28.532 154.045 28.9304 152.956 29.2492C151.866 29.5413 150.631 29.6874 149.25 29.6874Z" fill="black"/>
</svg>
